<svg xmlns="http://www.w3.org/2000/svg" width="1024" height="1024" viewBox="0 0 1024 1024">
  <defs>
    <linearGradient id="bg" x1="0%" y1="0%" x2="100%" y2="100%">
      <stop offset="0%" stop-color="#07111f"/>
      <stop offset="100%" stop-color="#0e243b"/>
    </linearGradient>
    <linearGradient id="facetA" x1="0%" y1="0%" x2="100%" y2="100%">
      <stop offset="0%" stop-color="#22d3ee"/>
      <stop offset="100%" stop-color="#2563eb"/>
    </linearGradient>
    <linearGradient id="facetB" x1="0%" y1="0%" x2="100%" y2="100%">
      <stop offset="0%" stop-color="#34d399"/>
      <stop offset="100%" stop-color="#0f766e"/>
    </linearGradient>
    <linearGradient id="facetC" x1="0%" y1="0%" x2="100%" y2="100%">
      <stop offset="0%" stop-color="#f8fafc"/>
      <stop offset="100%" stop-color="#93c5fd"/>
    </linearGradient>
  </defs>

  <rect width="1024" height="1024" rx="232" fill="url(#bg)"/>
  <circle cx="512" cy="512" r="372" fill="#0b1728" opacity="0.55"/>

  <path d="M512 158 L824 356 L512 866 L200 356 Z" fill="url(#facetA)" opacity="0.18"/>
  <path d="M512 232 L748 378 L512 768 L276 378 Z" fill="url(#facetC)" opacity="0.16"/>
  <path d="M512 260 L706 392 L512 710 L318 392 Z" fill="url(#facetB)" opacity="0.24"/>

  <path d="M512 236 L688 392 L512 578 L336 392 Z" fill="url(#facetC)" opacity="0.88"/>
  <path d="M336 392 L512 578 L432 760 L274 548 Z" fill="url(#facetB)" opacity="0.92"/>
  <path d="M688 392 L750 548 L592 760 L512 578 Z" fill="url(#facetA)" opacity="0.96"/>
  <path d="M432 760 L512 578 L592 760 L512 832 Z" fill="#dbeafe" opacity="0.94"/>

  <path d="M410 502 L510 402" stroke="#061120" stroke-width="42" stroke-linecap="round"/>
  <path d="M410 502 L510 602" stroke="#061120" stroke-width="42" stroke-linecap="round"/>
  <path d="M548 642 L646 362" stroke="#061120" stroke-width="42" stroke-linecap="round"/>
</svg>
